<svg width="28" height="28" viewBox="0 0 28 28" fill="none" xmlns="http://www.w3.org/2000/svg">
    <g clip-path="url(#clip0_856_431)">
        <path d="M27.7773 9.10934C20.0261 1.94003 7.97078 1.94265 0.22265 9.10934C-0.0687247 9.37884 -0.0744123 9.83515 0.207338 10.1147L1.70534 11.6009C1.97396 11.8678 2.40621 11.8735 2.68534 11.6175C9.06934 5.76903 18.9297 5.76771 25.315 11.6175C25.5942 11.8735 26.0264 11.8673 26.295 11.6009L27.793 10.1147C28.0743 9.83515 28.0687 9.37884 27.7773 9.10934ZM14 17.7333C12.4534 17.7333 11.2 18.9868 11.2 20.5333C11.2 22.0799 12.4534 23.3333 14 23.3333C15.5465 23.3333 16.8 22.0799 16.8 20.5333C16.8 18.9868 15.5465 17.7333 14 17.7333ZM22.8668 14.0763C17.8242 9.61684 10.1701 9.62165 5.13315 14.0763C4.83128 14.3431 4.82165 14.8065 5.10821 15.0891L6.61496 16.5761C6.87746 16.8351 7.30009 16.8526 7.57965 16.6111C11.2525 13.4362 16.7558 13.4432 20.4198 16.6111C20.6994 16.8526 21.122 16.8356 21.3845 16.5761L22.8913 15.0891C23.1783 14.8065 23.1682 14.3427 22.8668 14.0763Z"
              fill="#B5B5B5"/>
    </g>
    <defs>
        <clipPath id="clip0_856_431">
            <rect width="28" height="28" fill="white"/>
        </clipPath>
    </defs>
</svg>
