<svg width="26" height="26" viewBox="0 0 26 26" fill="none" xmlns="http://www.w3.org/2000/svg">
    <path d="M1.12052 16.9598C0.595422 16.4347 0.300423 15.7225 0.300423 14.9799C0.300423 14.2373 0.595422 13.5251 1.12052 13L12.9999 1.1206C13.525 0.595502 14.2372 0.300503 14.9798 0.300503C15.7224 0.300503 16.4346 0.595502 16.9597 1.1206L18.9396 3.1005C18.4145 3.62561 18.1195 4.3378 18.1195 5.0804C18.1195 5.82301 18.4145 6.5352 18.9396 7.0603C19.4647 7.5854 20.1769 7.8804 20.9195 7.8804C21.6621 7.8804 22.3743 7.5854 22.8994 7.0603L24.8793 9.0402C25.4044 9.5653 25.6994 10.2775 25.6994 11.0201C25.6994 11.7627 25.4044 12.4749 24.8793 13L12.9999 24.8794C12.4748 25.4045 11.7626 25.6995 11.02 25.6995C10.2774 25.6995 9.56522 25.4045 9.04012 24.8794L7.06022 22.8995C7.58532 22.3744 7.88032 21.6622 7.88032 20.9196C7.88032 20.177 7.58532 19.4648 7.06022 18.9397C6.53512 18.4146 5.82293 18.1196 5.08032 18.1196C4.33772 18.1196 3.62553 18.4146 3.10042 18.9397L1.12052 16.9598Z"
          fill="#B5B5B5"/>
</svg>
