<svg width="24" height="24" viewBox="0 0 24 24" fill="none" xmlns="http://www.w3.org/2000/svg">
    <path d="M0.00195312 5.19285V19.1571C0.00195312 20.4428 0.503989 21.5857 1.30725 22.4786C2.1105 23.3357 3.14805 23.8 4.35293 23.8H10.9129V20.9071H4.35293C3.44927 20.9071 2.74642 20.1214 2.74642 19.1571V5.19285C2.74642 4.22856 3.44927 3.47856 4.35293 3.47856H10.9129V0.549988H4.35293C3.14805 0.549988 2.1105 1.04999 1.30725 1.90713C0.503989 2.79999 0.00195312 3.90713 0.00195312 5.19285ZM7.1978 9.40713V14.9786C7.1978 15.6214 7.73331 16.1571 8.33575 16.1571H14.3937V20.55C14.3937 20.9428 14.5945 21.2643 14.9292 21.4428C15.063 21.4786 15.1969 21.4786 15.2639 21.4786C15.4981 21.4786 15.6989 21.4071 15.8663 21.2286L23.7315 12.8357C24.0997 12.5143 24.0662 11.8714 23.7315 11.5143L15.8663 3.15713C15.3977 2.62142 14.3937 2.94285 14.3937 3.79999V8.22856H8.33575C7.73331 8.22856 7.1978 8.76427 7.1978 9.40713Z"
          fill="#929292"/>
</svg>
