<svg width="22" height="24" viewBox="0 0 22 24" fill="none" xmlns="http://www.w3.org/2000/svg">
    <g clip-path="url(#clip0_831_542)">
        <path d="M16.7455 0.25C18.186 0.25 19.4219 0.775 20.4531 1.825C21.4844 2.875 22 4.13333 22 5.6C22 6.33333 21.5662 7.45833 20.6987 8.975C19.8311 10.4917 18.9799 12.0333 18.1451 13.6C17.3103 15.1667 16.942 16.4167 17.0402 17.35C17.0402 17.5167 16.9501 17.6 16.7701 17.6C16.59 17.6 16.5 17.5167 16.5 17.35C16.5655 16.4167 16.189 15.1667 15.3705 13.6C14.5521 12.0333 13.7091 10.4917 12.8415 8.975C11.974 7.45833 11.5402 6.33333 11.5402 5.6C11.5402 4.13333 12.0476 2.875 13.0625 1.825C14.0774 0.775 15.3051 0.25 16.7455 0.25ZM16.7701 3.45C16.1972 3.45 15.7061 3.65833 15.2969 4.075C14.8876 4.49167 14.683 5 14.683 5.6C14.683 6.2 14.8876 6.70833 15.2969 7.125C15.7061 7.54167 16.1972 7.75 16.7701 7.75C17.343 7.75 17.8341 7.54167 18.2433 7.125C18.6525 6.70833 18.8571 6.2 18.8571 5.6C18.8571 5 18.6525 4.49167 18.2433 4.075C17.8341 3.65833 17.343 3.45 16.7701 3.45ZM2.11161 2.4H11.1964C10.5417 3.46667 10.2143 4.61667 10.2143 5.85C10.2143 6.71667 10.7381 8.1 11.7857 10L0.0491071 21.95L0 21.6V4.55C0 3.95 0.204613 3.44167 0.613839 3.025C1.02307 2.60833 1.52232 2.4 2.11161 2.4ZM15.2232 16.15L12.7188 13.6L13.4062 12.85C14.192 14.15 14.7976 15.25 15.2232 16.15ZM18.2188 23.75H2.75L10.4598 15.85L18.2188 23.75ZM20.9688 11.35V21.6L20.9196 21.95L17.3839 18.35C17.4821 18.05 17.5967 17.7417 17.7277 17.425C17.8586 17.1083 18.006 16.775 18.1696 16.425C18.3333 16.075 18.4888 15.7583 18.6362 15.475C18.7835 15.1917 18.9799 14.8333 19.2254 14.4C19.471 13.9667 19.651 13.6417 19.7656 13.425C19.8802 13.2083 20.0848 12.85 20.3795 12.35L20.9688 11.35ZM4.91071 12.55C4.35417 12.55 3.9122 12.4333 3.58482 12.2C3.25744 11.9667 3.09375 11.65 3.09375 11.25C3.09375 10.7833 3.38839 10.4333 3.97768 10.2C4.30506 10.1 4.66518 10.05 5.05804 10.05H5.30357C5.72917 10.3833 6.02381 10.6333 6.1875 10.8C6.35119 10.9667 6.43304 11.1667 6.43304 11.4C6.43304 11.7 6.28571 11.9667 5.99107 12.2C5.69643 12.4333 5.33631 12.55 4.91071 12.55ZM3.68304 6.45C3.68304 6.11667 3.77307 5.85833 3.95312 5.675C4.13318 5.49167 4.3378 5.4 4.56696 5.4C4.99256 5.4 5.32812 5.6 5.57366 6C5.8192 6.4 5.94196 6.81667 5.94196 7.25C5.94196 7.61667 5.83557 7.875 5.62277 8.025C5.40997 8.175 5.18899 8.25 4.95982 8.25C4.5997 8.25 4.29688 8.05833 4.05134 7.675C3.8058 7.29167 3.68304 6.88333 3.68304 6.45ZM6.23661 9.55L5.89286 9.25C5.69643 9.08333 5.59821 8.93333 5.59821 8.8C5.59821 8.56667 5.7128 8.36667 5.94196 8.2C6.49851 7.76667 6.77679 7.28333 6.77679 6.75C6.77679 6.28333 6.54762 5.85 6.08929 5.45H6.67857L7.12054 5H5.00893C4.32143 5 3.78943 5.19167 3.41295 5.575C3.03646 5.95833 2.84821 6.41667 2.84821 6.95C2.84821 7.38333 2.99554 7.76667 3.29018 8.1C3.58482 8.43333 3.99405 8.6 4.51786 8.6H4.76339L4.66518 9C4.66518 9.23333 4.76339 9.46667 4.95982 9.7C4.17411 9.73333 3.51935 9.91667 2.99554 10.25C2.47173 10.55 2.20982 10.9667 2.20982 11.5C2.20982 11.9333 2.39807 12.2917 2.77455 12.575C3.15104 12.8583 3.6994 13 4.41964 13C5.2381 13 5.88467 12.8 6.35938 12.4C6.83408 12 7.07143 11.55 7.07143 11.05C7.07143 10.5167 6.79315 10.0167 6.23661 9.55Z"
              fill="white"/>
    </g>
    <defs>
        <clipPath id="clip0_831_542">
            <rect width="22" height="24" fill="white"/>
        </clipPath>
    </defs>
</svg>
