<svg width="17" height="16" viewBox="0 0 17 16" fill="none" xmlns="http://www.w3.org/2000/svg">
    <path d="M13.002 16H2.00195C1.47152 16 0.962812 15.7893 0.587739 15.4142C0.212667 15.0391 0.00195313 14.5304 0.00195312 14V3C0.00195312 2.46957 0.212667 1.96086 0.587739 1.58579C0.962812 1.21071 1.47152 1 2.00195 1H6.00195V3H2.00195V14H13.002V10H15.002V14C15.002 14.5304 14.7912 15.0391 14.4162 15.4142C14.0411 15.7893 13.5324 16 13.002 16ZM7.70195 9.707L6.29195 8.293L12.585 2H9.00195V0H16.002V7H14.002V3.415L7.70195 9.707Z"
          fill="#AAAAAA"/>
</svg>
