<svg width="22" height="24" viewBox="0 0 22 24" fill="none" xmlns="http://www.w3.org/2000/svg">
    <path d="M9.30833 0.955163C9.78173 0.556189 10.3809 0.337372 11 0.337372C11.6191 0.337372 12.2183 0.556189 12.6917 0.955163L20.5667 7.59933C21.1593 8.0975 21.5 8.83133 21.5 9.606V21.0417C21.5 21.5831 21.2849 22.1025 20.902 22.4853C20.5191 22.8682 19.9998 23.0833 19.4583 23.0833H15.9583C15.4168 23.0833 14.8975 22.8682 14.5147 22.4853C14.1318 22.1025 13.9167 21.5831 13.9167 21.0417V15.2083C13.9167 14.9763 13.8245 14.7537 13.6604 14.5896C13.4963 14.4255 13.2737 14.3333 13.0417 14.3333H8.95833C8.72627 14.3333 8.50371 14.4255 8.33962 14.5896C8.17552 14.7537 8.08333 14.9763 8.08333 15.2083V21.0417C8.08333 21.5831 7.86823 22.1025 7.48534 22.4853C7.10246 22.8682 6.58315 23.0833 6.04167 23.0833H2.54167C2.27355 23.0833 2.00806 23.0305 1.76035 22.9279C1.51265 22.8253 1.28758 22.6749 1.09799 22.4853C0.908404 22.2958 0.758016 22.0707 0.655413 21.823C0.552809 21.5753 0.5 21.3098 0.5 21.0417V9.60483C0.5 8.83133 0.840667 8.0975 1.43333 7.59816L9.30833 0.955163V0.955163Z"
          fill="#B5B5B5"/>
</svg>
