<svg width="34" height="34" viewBox="0 0 34 34" fill="none" xmlns="http://www.w3.org/2000/svg">
    <path d="M9.83341 19C11.0372 19 12.2292 18.7629 13.3413 18.3022C14.4535 17.8416 15.464 17.1664 16.3152 16.3152C17.1664 15.464 17.8416 14.4534 18.3023 13.3413C18.763 12.2291 19.0001 11.0371 19.0001 9.83335C19.0001 8.62957 18.763 7.43757 18.3023 6.32542C17.8416 5.21327 17.1664 4.20274 16.3152 3.35154C15.464 2.50034 14.4535 1.82513 13.3413 1.36446C12.2292 0.90379 11.0372 0.666687 9.83341 0.666687C7.40226 0.666687 5.07069 1.63246 3.3516 3.35154C1.63252 5.07062 0.666748 7.4022 0.666748 9.83335C0.666748 12.2645 1.63252 14.5961 3.3516 16.3152C5.07069 18.0343 7.40226 19 9.83341 19ZM9.83341 16.5C8.49704 16.5022 7.19116 16.1008 6.08675 15.3484L15.3484 6.08669C16.0294 7.08893 16.4243 8.25783 16.4908 9.46771C16.5573 10.6776 16.2927 11.8827 15.7256 12.9535C15.1585 14.0243 14.3103 14.9203 13.2721 15.5452C12.234 16.17 11.0451 16.5002 9.83341 16.5ZM4.31841 13.58C3.4458 12.2969 3.04811 10.7496 3.19389 9.2047C3.33967 7.65983 4.01978 6.2142 5.11702 5.11696C6.21426 4.01972 7.65989 3.3396 9.20476 3.19382C10.7496 3.04804 12.297 3.44573 13.5801 4.31835L4.31841 13.58ZM6.50008 20.145C5.6195 19.86 4.77927 19.4629 4.00008 18.9634V28.5834C4.00008 30.0199 4.57076 31.3977 5.58659 32.4135C6.60241 33.4293 7.98016 34 9.41675 34H28.5834C30.02 34 31.3978 33.4293 32.4136 32.4135C33.4294 31.3977 34.0001 30.0199 34.0001 28.5834V9.41669C34.0001 7.9801 33.4294 6.60235 32.4136 5.58652C31.3978 4.5707 30.02 4.00002 28.5834 4.00002H18.9634C19.4584 4.77169 19.8567 5.61169 20.1451 6.50002H28.5834C30.1934 6.50002 31.5001 7.80669 31.5001 9.41669V28.5834C31.5001 28.9317 31.4384 29.265 31.3267 29.575L21.6234 20.0717L21.4101 19.8784C20.6968 19.28 19.7864 18.9684 18.8561 19.0041C17.9258 19.0399 17.042 19.4204 16.3767 20.0717L6.67175 29.5717C6.55778 29.2547 6.49969 28.9202 6.50008 28.5834V20.145ZM19.8751 21.8584L29.5501 31.3334C29.239 31.4428 28.9115 31.4986 28.5817 31.4984H9.41675C9.07675 31.4984 8.75008 31.44 8.44675 31.3334L18.1251 21.8567L18.2651 21.7384C18.5039 21.5644 18.7967 21.4806 19.0914 21.502C19.3862 21.5233 19.6638 21.6484 19.8751 21.855V21.8584ZM28.1751 13.5867C28.1751 12.591 27.7796 11.6361 27.0755 10.9321C26.3715 10.228 25.4166 9.83252 24.4209 9.83252C23.4252 9.83252 22.4704 10.228 21.7663 10.9321C21.0623 11.6361 20.6667 12.591 20.6667 13.5867C20.6667 14.5821 21.0622 15.5368 21.7661 16.2407C22.47 16.9446 23.4246 17.34 24.4201 17.34C25.4155 17.34 26.3702 16.9446 27.0741 16.2407C27.778 15.5368 28.1734 14.5821 28.1734 13.5867H28.1751ZM23.1667 13.5867C23.1667 13.2543 23.2988 12.9355 23.5338 12.7004C23.7689 12.4654 24.0877 12.3334 24.4201 12.3334C24.7525 12.3334 25.0713 12.4654 25.3063 12.7004C25.5414 12.9355 25.6734 13.2543 25.6734 13.5867C25.6734 13.9191 25.5414 14.2379 25.3063 14.4729C25.0713 14.708 24.7525 14.84 24.4201 14.84C24.0877 14.84 23.7689 14.708 23.5338 14.4729C23.2988 14.2379 23.1667 13.9191 23.1667 13.5867Z"
          fill="#AAAAAA"/>
</svg>
