<svg width="14" height="19" viewBox="0 0 14 19" fill="none" xmlns="http://www.w3.org/2000/svg">
    <path d="M7 18.8C5.73694 17.7226 4.56619 16.5415 3.5 15.269C1.9 13.358 8.78894e-07 10.512 8.78894e-07 7.79999C-0.00069302 6.41495 0.409509 5.06083 1.17869 3.90901C1.94788 2.75719 3.04147 1.85945 4.32107 1.32939C5.60067 0.799325 7.00875 0.660778 8.36712 0.93128C9.72548 1.20178 10.9731 1.86917 11.952 2.84899C12.6038 3.49785 13.1203 4.26953 13.4719 5.11936C13.8234 5.9692 14.0029 6.88032 14 7.79999C14 10.512 12.1 13.358 10.5 15.269C9.4338 16.5415 8.26306 17.7226 7 18.8ZM7 4.79999C6.20435 4.79999 5.44129 5.11606 4.87868 5.67867C4.31607 6.24128 4 7.00434 4 7.79999C4 8.59564 4.31607 9.3587 4.87868 9.92131C5.44129 10.4839 6.20435 10.8 7 10.8C7.79565 10.8 8.55871 10.4839 9.12132 9.92131C9.68393 9.3587 10 8.59564 10 7.79999C10 7.00434 9.68393 6.24128 9.12132 5.67867C8.55871 5.11606 7.79565 4.79999 7 4.79999Z"
          fill="#929292"/>
</svg>
