<svg width="16" height="22" viewBox="0 0 16 22" fill="none" xmlns="http://www.w3.org/2000/svg">
    <path d="M8 16.8C8.53043 16.8 9.03914 16.5893 9.41421 16.2142C9.78929 15.8391 10 15.3304 10 14.8C10 14.2696 9.78929 13.7608 9.41421 13.3858C9.03914 13.0107 8.53043 12.8 8 12.8C7.46957 12.8 6.96086 13.0107 6.58579 13.3858C6.21071 13.7608 6 14.2696 6 14.8C6 15.3304 6.21071 15.8391 6.58579 16.2142C6.96086 16.5893 7.46957 16.8 8 16.8ZM14 7.79999C14.5304 7.79999 15.0391 8.0107 15.4142 8.38577C15.7893 8.76085 16 9.26956 16 9.79999V19.8C16 20.3304 15.7893 20.8391 15.4142 21.2142C15.0391 21.5893 14.5304 21.8 14 21.8H2C1.46957 21.8 0.960859 21.5893 0.585786 21.2142C0.210714 20.8391 0 20.3304 0 19.8V9.79999C0 9.26956 0.210714 8.76085 0.585786 8.38577C0.960859 8.0107 1.46957 7.79999 2 7.79999H3V5.79999C3 4.47391 3.52678 3.20214 4.46447 2.26445C5.40215 1.32677 6.67392 0.799988 8 0.799988C8.65661 0.799988 9.30679 0.929317 9.91342 1.18059C10.52 1.43186 11.0712 1.80016 11.5355 2.26445C11.9998 2.72875 12.3681 3.27994 12.6194 3.88657C12.8707 4.4932 13 5.14338 13 5.79999V7.79999H14ZM8 2.79999C7.20435 2.79999 6.44129 3.11606 5.87868 3.67867C5.31607 4.24128 5 5.00434 5 5.79999V7.79999H11V5.79999C11 5.00434 10.6839 4.24128 10.1213 3.67867C9.55871 3.11606 8.79565 2.79999 8 2.79999Z"
          fill="#929292"/>
</svg>
