<svg width="32" height="30" viewBox="0 0 32 30" fill="none" xmlns="http://www.w3.org/2000/svg">
    <path d="M22.6667 21.6667V23.3333C22.6667 24.6594 22.1399 25.9312 21.2022 26.8689C20.2645 27.8065 18.9927 28.3333 17.6667 28.3333H6C4.67392 28.3333 3.40215 27.8065 2.46447 26.8689C1.52678 25.9312 1 24.6594 1 23.3333V6.66666C1 5.34057 1.52678 4.0688 2.46447 3.13112C3.40215 2.19344 4.67392 1.66666 6 1.66666H17.6667C18.9927 1.66666 20.2645 2.19344 21.2022 3.13112C22.1399 4.0688 22.6667 5.34057 22.6667 6.66666V8.33332M14.3333 21.6667L7.66667 15L14.3333 21.6667ZM7.66667 15L14.3333 8.33332L7.66667 15ZM7.66667 15H31H7.66667Z"
          stroke="#0074E0" stroke-width="2" stroke-linecap="round" stroke-linejoin="round"/>
</svg>
