<svg width="172" height="123" viewBox="0 0 172 123" fill="none" xmlns="http://www.w3.org/2000/svg">
    <g clip-path="url(#clip0_16416:1122)">
        <path d="M39.3136 36.8447C39.6776 37.0698 40.035 37.2991 40.3919 37.5358C44.1618 46.9627 46.3143 56.9513 46.7597 67.086C46.8146 68.258 46.8425 69.4282 46.8433 70.5966C46.8758 79.3585 45.5929 88.0761 43.0369 96.4617C42.9021 96.9031 42.7643 97.3428 42.6236 97.7807C42.5227 98.0949 42.42 98.4121 42.3087 98.7239C42.1903 98.8837 42.0736 99.0407 41.957 99.1975C41.9488 99.2044 41.9416 99.216 41.9333 99.2231C41.8863 99.2864 41.8393 99.3497 41.7971 99.4118C41.5954 99.6808 41.3908 99.9482 41.1892 100.217L41.359 100.229L41.7846 100.255L41.7829 100.258C41.64 100.255 41.4942 100.251 41.3501 100.243C41.2977 100.243 41.2407 100.244 41.1872 100.24C41.1396 100.239 41.089 100.236 41.0413 100.235C34.9044 100.07 28.624 99.7656 23.0394 97.2713C17.1942 94.6583 12.2359 89.0088 12.4879 82.6458C12.5233 81.8124 12.6505 80.9854 12.8672 80.1796C12.9577 79.843 13.0646 79.5124 13.1791 79.1824C13.8762 77.1622 15.102 75.3629 16.7305 73.9696C18.3591 72.5763 20.3316 71.6392 22.4453 71.2547C24.559 70.8702 26.7376 71.0522 28.7571 71.7819C30.7766 72.5116 32.5642 73.7627 33.9359 75.4065C32.2608 68.8633 25.0693 65.5244 18.5921 63.4944C12.1102 61.4656 4.81736 59.3435 1.50579 53.4479C-0.34312 50.1671 -0.387638 46.3446 0.818802 42.8149C0.85553 42.7094 0.894106 42.601 0.935578 42.4943C2.45502 38.3412 5.49522 34.9109 9.44867 32.8888C16.8561 29.2437 25.8569 30.5298 33.4467 33.7832C35.4774 34.6549 37.4386 35.6783 39.3136 36.8447Z"
              fill="#F2F2F2"/>
        <path d="M18.0826 79.2093C23.9048 79.7413 29.4003 82.1211 33.7568 85.9968C37.4671 89.3346 40.2049 93.6036 41.6828 98.3557C41.7688 98.6276 41.8471 98.8989 41.9207 99.1715C42.0678 98.8931 42.2107 98.6085 42.3519 98.3266C42.4428 98.1462 42.5355 97.9628 42.6235 97.7806C42.5226 98.0948 42.42 98.4121 42.3086 98.7238C42.1902 98.8836 42.0735 99.0406 41.957 99.1974C41.9487 99.2043 41.9416 99.216 41.9332 99.223C41.8862 99.2863 41.8392 99.3497 41.797 99.4118C41.5953 99.6807 41.3907 99.9481 41.1891 100.217L41.3589 100.228L41.7846 100.255L41.7828 100.258C41.6399 100.255 41.4941 100.251 41.35 100.243C41.2977 100.243 41.2406 100.244 41.1872 100.24C41.1696 100.157 41.1473 100.076 41.1251 99.9943C39.6166 93.8567 35.9242 88.4691 30.7299 84.8269C25.5357 81.1846 19.1907 79.5338 12.8672 80.1795C12.9576 79.8429 13.0645 79.5123 13.1791 79.1823C14.8112 79.0496 16.452 79.0586 18.0826 79.2093Z"
              fill="white"/>
        <path d="M37.4272 55.0071C39.7633 56.7466 41.8312 58.8161 43.5653 61.1498C44.4689 62.3939 45.2539 63.7189 45.9102 65.1077C46.2213 65.7521 46.5046 66.4156 46.7596 67.0859C46.8145 68.2579 46.8423 69.4281 46.8431 70.5966C46.6266 69.7133 46.3627 68.8421 46.0527 67.9868C45.8913 67.5172 45.7122 67.0568 45.5219 66.6017C43.3871 61.505 39.5192 57.4809 34.9576 54.4214C30.0695 51.1477 24.5587 48.6902 18.9739 46.8628C13.2504 44.9813 7.31639 43.8042 1.30468 43.3579C1.16892 43.3469 1.04262 43.2844 0.952095 43.1832C0.861569 43.0821 0.813792 42.9501 0.818704 42.8148C0.814087 42.6969 0.855989 42.5819 0.93548 42.4943C0.977711 42.4531 1.02905 42.4224 1.08539 42.4046C1.14172 42.3868 1.20148 42.3824 1.25984 42.3917C2.00171 42.4469 2.74166 42.5052 3.48157 42.5831C9.63797 43.2134 15.6916 44.6022 21.5031 46.7176C27.1132 48.7522 32.6655 51.3906 37.4272 55.0071Z"
              fill="white"/>
        <path d="M6.92297 26.8194C8.05942 26.8194 8.9807 25.9038 8.9807 24.7743C8.9807 23.6447 8.05942 22.7291 6.92297 22.7291C5.78651 22.7291 4.86523 23.6447 4.86523 24.7743C4.86523 25.9038 5.78651 26.8194 6.92297 26.8194Z"
              fill="#F2F2F2"/>
        <path d="M133.339 43.6548H39.9297V122.73H133.339V43.6548Z" fill="white"/>
        <path d="M133.61 123H39.6582V43.3849H133.61V123ZM40.2013 122.46H133.067V43.9247H40.2013V122.46Z"
              fill="#3F3D56"/>
        <path d="M98.3092 59.038H74.957V122.73H98.3092V59.038Z" fill="#0074E0"/>
        <path d="M98.3092 59.038H74.957V122.73H98.3092V59.038Z" fill="#FEA025"/>
        <path opacity="0.2" d="M40.1992 49.4572V62.2868L133.337 68.2139L133.062 52.3832L40.1992 49.4572Z" fill="black"/>
        <path d="M138.768 36.368H34.498V59.0381H138.768V36.368Z" fill="white"/>
        <path d="M139.04 59.3079H34.2266V36.0981H139.04V59.3079ZM34.7696 58.7682H138.497V36.6378H34.7696V58.7682Z"
              fill="#3F3D56"/>
        <path d="M98.3092 34.2089H74.957V58.7682H98.3092V34.2089Z" fill="#FEA025"/>
        <path d="M84.1328 12.7955C90.2971 21.8775 84.4892 36.4845 84.4892 36.4845C84.4892 36.4845 68.687 36.3668 62.5227 27.2848C56.3584 18.2029 62.1664 3.59583 62.1664 3.59583C62.1664 3.59583 77.9685 3.71356 84.1328 12.7955Z"
              fill="#FEA025"/>
        <path d="M86.9602 12.7955C80.7959 21.8775 86.6039 36.4845 86.6039 36.4845C86.6039 36.4845 102.406 36.3668 108.57 27.2848C114.735 18.2029 108.927 3.59583 108.927 3.59583C108.927 3.59583 93.1245 3.71356 86.9602 12.7955Z"
              fill="#FEA025"/>
        <path d="M70.3403 19.6353C71.69 19.6353 72.7842 18.5479 72.7842 17.2064C72.7842 15.8649 71.69 14.7775 70.3403 14.7775C68.9906 14.7775 67.8965 15.8649 67.8965 17.2064C67.8965 18.5479 68.9906 19.6353 70.3403 19.6353Z"
              fill="#3F3D56"/>
        <path d="M85.0044 44.1945C86.3541 44.1945 87.4482 43.1071 87.4482 41.7656C87.4482 40.4241 86.3541 39.3367 85.0044 39.3367C83.6547 39.3367 82.5605 40.4241 82.5605 41.7656C82.5605 43.1071 83.6547 44.1945 85.0044 44.1945Z"
              fill="#3F3D56"/>
        <path d="M85.0044 97.3613C86.3541 97.3613 87.4482 96.2738 87.4482 94.9324C87.4482 93.5909 86.3541 92.5034 85.0044 92.5034C83.6547 92.5034 82.5605 93.5909 82.5605 94.9324C82.5605 96.2738 83.6547 97.3613 85.0044 97.3613Z"
              fill="#3F3D56"/>
        <path d="M76.8577 27.7317C77.7575 27.7317 78.487 27.0068 78.487 26.1125C78.487 25.2181 77.7575 24.4932 76.8577 24.4932C75.9579 24.4932 75.2285 25.2181 75.2285 26.1125C75.2285 27.0068 75.9579 27.7317 76.8577 27.7317Z"
              fill="#3F3D56"/>
        <path d="M101.295 13.9678C102.195 13.9678 102.924 13.2428 102.924 12.3485C102.924 11.4542 102.195 10.7292 101.295 10.7292C100.395 10.7292 99.666 11.4542 99.666 12.3485C99.666 13.2428 100.395 13.9678 101.295 13.9678Z"
              fill="#3F3D56"/>
        <path d="M90.7054 52.0211C91.6052 52.0211 92.3346 51.2961 92.3346 50.4018C92.3346 49.5075 91.6052 48.7825 90.7054 48.7825C89.8056 48.7825 89.0762 49.5075 89.0762 50.4018C89.0762 51.2961 89.8056 52.0211 90.7054 52.0211Z"
              fill="#3F3D56"/>
        <path d="M80.93 73.0719C81.8298 73.0719 82.5592 72.3469 82.5592 71.4526C82.5592 70.5583 81.8298 69.8333 80.93 69.8333C80.0302 69.8333 79.3008 70.5583 79.3008 71.4526C79.3008 72.3469 80.0302 73.0719 80.93 73.0719Z"
              fill="#3F3D56"/>
        <path d="M89.348 80.3587C90.2478 80.3587 90.9772 79.6337 90.9772 78.7394C90.9772 77.8451 90.2478 77.1201 89.348 77.1201C88.4482 77.1201 87.7188 77.8451 87.7188 78.7394C87.7188 79.6337 88.4482 80.3587 89.348 80.3587Z"
              fill="#3F3D56"/>
        <path d="M87.4476 110.855C88.3474 110.855 89.0768 110.13 89.0768 109.236C89.0768 108.342 88.3474 107.617 87.4476 107.617C86.5478 107.617 85.8184 108.342 85.8184 109.236C85.8184 110.13 86.5478 110.855 87.4476 110.855Z"
              fill="#3F3D56"/>
        <path d="M168.965 80.7817H119.264V122.856H168.965V80.7817Z" fill="white"/>
        <path d="M169.109 123H119.119V80.6382H169.109V123ZM119.408 122.713H168.82V80.9254H119.408V122.713Z"
              fill="#3F3D56"/>
        <path d="M150.328 88.9669H137.902V122.856H150.328V88.9669Z" fill="#0074E0"/>
        <path d="M150.328 88.9669H137.902V122.856H150.328V88.9669Z" fill="#FEA025"/>
        <path opacity="0.2" d="M119.408 83.8693V90.6956L168.965 93.8492L168.819 85.4262L119.408 83.8693Z" fill="black"/>
        <path d="M171.855 76.9045H116.375V88.9669H171.855V76.9045Z" fill="white"/>
        <path d="M172 89.1105H116.23V76.761H172V89.1105ZM116.519 88.8234H171.711V77.0482H116.519V88.8234Z"
              fill="#3F3D56"/>
        <path d="M150.328 75.7558H137.902V88.8233H150.328V75.7558Z" fill="#FEA025"/>
        <path d="M142.784 64.362C146.064 69.1944 142.974 76.9665 142.974 76.9665C142.974 76.9665 134.566 76.9039 131.286 72.0715C128.006 67.2392 131.096 59.467 131.096 59.467C131.096 59.467 139.504 59.5297 142.784 64.362Z"
              fill="#FEA025"/>
        <path d="M144.29 64.362C141.01 69.1944 144.1 76.9665 144.1 76.9665C144.1 76.9665 152.508 76.9039 155.788 72.0715C159.068 67.2392 155.978 59.467 155.978 59.467C155.978 59.467 147.57 59.5297 144.29 64.362Z"
              fill="#FEA025"/>
        <path d="M135.445 68.0014C136.163 68.0014 136.745 67.4228 136.745 66.709C136.745 65.9953 136.163 65.4166 135.445 65.4166C134.727 65.4166 134.145 65.9953 134.145 66.709C134.145 67.4228 134.727 68.0014 135.445 68.0014Z"
              fill="#3F3D56"/>
        <path d="M143.25 81.069C143.968 81.069 144.55 80.4904 144.55 79.7766C144.55 79.0628 143.968 78.4842 143.25 78.4842C142.531 78.4842 141.949 79.0628 141.949 79.7766C141.949 80.4904 142.531 81.069 143.25 81.069Z"
              fill="#3F3D56"/>
        <path d="M143.25 109.358C143.968 109.358 144.55 108.779 144.55 108.066C144.55 107.352 143.968 106.773 143.25 106.773C142.531 106.773 141.949 107.352 141.949 108.066C141.949 108.779 142.531 109.358 143.25 109.358Z"
              fill="#3F3D56"/>
        <path d="M138.914 72.3094C139.393 72.3094 139.781 71.9237 139.781 71.4478C139.781 70.972 139.393 70.5862 138.914 70.5862C138.435 70.5862 138.047 70.972 138.047 71.4478C138.047 71.9237 138.435 72.3094 138.914 72.3094Z"
              fill="#3F3D56"/>
        <path d="M151.918 64.9858C152.396 64.9858 152.785 64.6001 152.785 64.1242C152.785 63.6484 152.396 63.2626 151.918 63.2626C151.439 63.2626 151.051 63.6484 151.051 64.1242C151.051 64.6001 151.439 64.9858 151.918 64.9858Z"
              fill="#3F3D56"/>
        <path d="M146.283 85.2333C146.762 85.2333 147.15 84.8476 147.15 84.3717C147.15 83.8959 146.762 83.5101 146.283 83.5101C145.804 83.5101 145.416 83.8959 145.416 84.3717C145.416 84.8476 145.804 85.2333 146.283 85.2333Z"
              fill="#3F3D56"/>
        <path d="M141.082 96.4341C141.561 96.4341 141.949 96.0484 141.949 95.5725C141.949 95.0967 141.561 94.7109 141.082 94.7109C140.603 94.7109 140.215 95.0967 140.215 95.5725C140.215 96.0484 140.603 96.4341 141.082 96.4341Z"
              fill="#3F3D56"/>
        <path d="M145.56 100.311C146.039 100.311 146.427 99.9256 146.427 99.4497C146.427 98.9739 146.039 98.5881 145.56 98.5881C145.081 98.5881 144.693 98.9739 144.693 99.4497C144.693 99.9256 145.081 100.311 145.56 100.311Z"
              fill="#3F3D56"/>
        <path d="M144.549 116.538C145.027 116.538 145.415 116.152 145.415 115.676C145.415 115.201 145.027 114.815 144.549 114.815C144.07 114.815 143.682 115.201 143.682 115.676C143.682 116.152 144.07 116.538 144.549 116.538Z"
              fill="#3F3D56"/>
        <path d="M83.4466 103.472C83.881 102.561 81.8679 100.708 78.9501 99.333C76.0323 97.9576 73.3148 97.5806 72.8804 98.491C72.4459 99.4014 74.4591 101.254 77.3769 102.63C80.2946 104.005 83.0122 104.382 83.4466 103.472Z"
              fill="#2F2E41"/>
        <path d="M107.526 112.849C108.303 112.202 107.253 109.682 105.18 107.222C103.107 104.761 100.796 103.29 100.019 103.937C99.2415 104.584 100.292 107.103 102.365 109.564C104.438 112.025 106.749 113.496 107.526 112.849Z"
              fill="#2F2E41"/>
        <path d="M91.335 117.998C97.7936 117.998 103.029 112.794 103.029 106.375C103.029 99.9554 97.7936 94.7516 91.335 94.7516C84.8764 94.7516 79.6406 99.9554 79.6406 106.375C79.6406 112.794 84.8764 117.998 91.335 117.998Z"
              fill="#2F2E41"/>
        <path d="M96.2852 115.497H92.7324V121.823H96.2852V115.497Z" fill="#2F2E41"/>
        <path d="M89.1797 115.497H85.627V121.823H89.1797V115.497Z" fill="#2F2E41"/>
        <path d="M93.3239 123C94.959 123 96.2845 122.506 96.2845 121.897C96.2845 121.287 94.959 120.793 93.3239 120.793C91.6888 120.793 90.3633 121.287 90.3633 121.897C90.3633 122.506 91.6888 123 93.3239 123Z"
              fill="#2F2E41"/>
        <path d="M86.2184 122.853C87.8535 122.853 89.179 122.359 89.179 121.749C89.179 121.14 87.8535 120.646 86.2184 120.646C84.5833 120.646 83.2578 121.14 83.2578 121.749C83.2578 122.359 84.5833 122.853 86.2184 122.853Z"
              fill="#2F2E41"/>
        <path d="M87.6634 91.764C88.7076 87.5844 93.317 85.1247 97.9587 86.2703C102.6 87.4158 105.517 91.7328 104.473 95.9124C103.428 100.092 99.9639 100.106 95.3222 98.96C90.6805 97.8145 86.6192 95.9437 87.6634 91.764Z"
              fill="#0074E0"/>
        <path d="M89.5864 107.797C91.7397 107.797 93.4853 106.062 93.4853 103.922C93.4853 101.782 91.7397 100.047 89.5864 100.047C87.4331 100.047 85.6875 101.782 85.6875 103.922C85.6875 106.062 87.4331 107.797 89.5864 107.797Z"
              fill="white"/>
        <path d="M87.9832 103.825C88.701 103.825 89.2829 103.246 89.2829 102.533C89.2829 101.82 88.701 101.241 87.9832 101.241C87.2655 101.241 86.6836 101.82 86.6836 102.533C86.6836 103.246 87.2655 103.825 87.9832 103.825Z"
              fill="#3F3D56"/>
        <path d="M92.0336 111.996C92.0947 112.329 92.0891 112.672 92.0171 113.004C91.945 113.335 91.808 113.649 91.6137 113.928C91.4195 114.207 91.1719 114.446 90.885 114.629C90.5982 114.813 90.2777 114.939 89.9419 115C89.606 115.061 89.2615 115.055 88.9278 114.984C88.5942 114.912 88.278 114.776 87.9973 114.583C87.7166 114.39 87.4769 114.144 87.2919 113.858C87.1069 113.573 86.9802 113.255 86.9191 112.921L86.9182 112.916C86.6624 111.512 87.7546 111.015 89.1672 110.761C90.5798 110.507 91.7779 110.592 92.0336 111.996Z"
              fill="white"/>
        <path d="M114.978 18.8375C117.962 17.6122 120.068 15.864 119.681 14.9327C119.294 14.0014 116.561 14.2397 113.576 15.465C110.591 16.6903 108.486 18.4386 108.873 19.3698C109.26 20.3011 111.993 20.0628 114.978 18.8375Z"
              fill="#2F2E41"/>
        <path d="M143.641 26.8595C144.419 26.2126 143.368 23.6933 141.295 21.2323C139.222 18.7714 136.911 17.3008 136.134 17.9476C135.357 18.5945 136.407 21.1138 138.48 23.5748C140.553 26.0357 142.864 27.5063 143.641 26.8595Z"
              fill="#2F2E41"/>
        <path d="M127.45 32.0085C133.909 32.0085 139.145 26.8047 139.145 20.3854C139.145 13.9662 133.909 8.76233 127.45 8.76233C120.992 8.76233 115.756 13.9662 115.756 20.3854C115.756 26.8047 120.992 32.0085 127.45 32.0085Z"
              fill="#2F2E41"/>
        <path d="M132.398 29.5073H128.846V35.8337H132.398V29.5073Z" fill="#2F2E41"/>
        <path d="M125.293 29.5073H121.74V35.8337H125.293V29.5073Z" fill="#2F2E41"/>
        <path d="M129.439 37.0108C131.074 37.0108 132.4 36.5168 132.4 35.9074C132.4 35.2979 131.074 34.8039 129.439 34.8039C127.804 34.8039 126.479 35.2979 126.479 35.9074C126.479 36.5168 127.804 37.0108 129.439 37.0108Z"
              fill="#2F2E41"/>
        <path d="M122.334 36.8637C123.969 36.8637 125.294 36.3696 125.294 35.7602C125.294 35.1508 123.969 34.6567 122.334 34.6567C120.699 34.6567 119.373 35.1508 119.373 35.7602C119.373 36.3696 120.699 36.8637 122.334 36.8637Z"
              fill="#2F2E41"/>
        <path d="M123.779 5.77483C124.823 1.59517 129.432 -0.864471 134.074 0.281069C138.716 1.42661 141.632 5.74355 140.588 9.92321C139.544 14.1029 136.079 14.1164 131.437 12.9708C126.796 11.8253 122.734 9.95448 123.779 5.77483Z"
              fill="#0074E0"/>
        <path d="M125.702 21.808C127.855 21.808 129.601 20.0731 129.601 17.9329C129.601 15.7927 127.855 14.0577 125.702 14.0577C123.548 14.0577 121.803 15.7927 121.803 17.9329C121.803 20.0731 123.548 21.808 125.702 21.808Z"
              fill="white"/>
        <path d="M124.098 19.7247C124.816 19.7247 125.398 19.1464 125.398 18.433C125.398 17.7196 124.816 17.1413 124.098 17.1413C123.381 17.1413 122.799 17.7196 122.799 18.433C122.799 19.1464 123.381 19.7247 124.098 19.7247Z"
              fill="#3F3D56"/>
        <path d="M128.147 26.0064C128.27 26.6805 128.119 27.3757 127.727 27.9392C127.335 28.5026 126.733 28.8881 126.055 29.0108C125.377 29.1335 124.677 28.9834 124.111 28.5935C123.544 28.2036 123.156 27.6059 123.032 26.9318L123.031 26.9268C122.776 25.5228 123.868 25.026 125.28 24.7719C126.693 24.5177 127.891 24.6025 128.147 26.0064Z"
              fill="white"/>
        <path d="M27.3936 117.998C33.8522 117.998 39.088 112.794 39.088 106.375C39.088 99.9554 33.8522 94.7515 27.3936 94.7515C20.935 94.7515 15.6992 99.9554 15.6992 106.375C15.6992 112.794 20.935 117.998 27.3936 117.998Z"
              fill="#2F2E41"/>
        <path d="M25.6172 115.497H22.0645V121.823H25.6172V115.497Z" fill="#2F2E41"/>
        <path d="M32.7226 115.497H29.1699V121.823H32.7226V115.497Z" fill="#2F2E41"/>
        <path d="M25.0251 123C26.6602 123 27.9857 122.506 27.9857 121.897C27.9857 121.287 26.6602 120.793 25.0251 120.793C23.39 120.793 22.0645 121.287 22.0645 121.897C22.0645 122.506 23.39 123 25.0251 123Z"
              fill="#2F2E41"/>
        <path d="M32.1305 122.853C33.7656 122.853 35.0911 122.359 35.0911 121.749C35.0911 121.14 33.7656 120.646 32.1305 120.646C30.4954 120.646 29.1699 121.14 29.1699 121.749C29.1699 122.359 30.4954 122.853 32.1305 122.853Z"
              fill="#2F2E41"/>
        <path d="M16.0498 95.5654C15.1056 91.3624 18.124 87.1153 22.7917 86.0794C27.4595 85.0435 32.0089 87.611 32.9531 91.8141C33.8974 96.0172 30.8039 97.5674 26.1362 98.6033C21.4685 99.6391 16.9941 99.7685 16.0498 95.5654Z"
              fill="#0074E0"/>
        <path d="M39.9964 101.295C42.529 98.7763 43.9371 96.0936 43.1414 95.3034C42.3458 94.5131 39.6476 95.9147 37.115 98.4338C34.5824 100.953 33.1743 103.636 33.97 104.426C34.7657 105.216 37.4638 103.815 39.9964 101.295Z"
              fill="#2F2E41"/>
        <path d="M17.9676 105.236C18.7633 104.445 17.3552 101.763 14.8226 99.2435C12.29 96.7243 9.59185 95.3228 8.79617 96.113C8.00049 96.9032 9.40857 99.586 11.9412 102.105C14.4738 104.624 17.1719 106.026 17.9676 105.236Z"
              fill="#2F2E41"/>
        <path d="M26.9011 108.7C29.1085 108.7 30.8979 106.921 30.8979 104.727C30.8979 102.534 29.1085 100.755 26.9011 100.755C24.6937 100.755 22.9043 102.534 22.9043 104.727C22.9043 106.921 24.6937 108.7 26.9011 108.7Z"
              fill="white"/>
        <path d="M26.9006 106.052C27.6364 106.052 28.2329 105.459 28.2329 104.727C28.2329 103.996 27.6364 103.403 26.9006 103.403C26.1648 103.403 25.5684 103.996 25.5684 104.727C25.5684 105.459 26.1648 106.052 26.9006 106.052Z"
              fill="#3F3D56"/>
        <path d="M30.0746 112.074C30.1357 112.408 30.1301 112.75 30.0581 113.082C29.9861 113.414 29.849 113.728 29.6548 114.007C29.4605 114.286 29.2129 114.524 28.9261 114.708C28.6392 114.892 28.3187 115.018 27.9829 115.079C27.6471 115.139 27.3025 115.134 26.9688 115.062C26.6352 114.991 26.319 114.854 26.0383 114.661C25.7576 114.468 25.5179 114.222 25.3329 113.937C25.1479 113.652 25.0212 113.333 24.9601 113L24.9592 112.995C24.7035 111.591 25.7956 111.094 27.2082 110.84C28.6208 110.586 29.8189 110.67 30.0746 112.074Z"
              fill="white"/>
    </g>
    <defs>
        <clipPath id="clip0_16416:1122">
            <rect width="172" height="123" fill="white"/>
        </clipPath>
    </defs>
</svg>
