<svg width="20" height="26" viewBox="0 0 20 26" fill="none" xmlns="http://www.w3.org/2000/svg">
    <path fill-rule="evenodd" clip-rule="evenodd"
          d="M3.28719 3.3277C5.08152 1.45601 7.51432 0.403117 10.0519 0.399994C12.5895 0.403117 15.0223 1.45601 16.8166 3.3277C18.6109 5.19942 19.6203 7.73709 19.6233 10.3841C19.6263 12.5462 18.9492 14.6496 17.696 16.3718L17.6951 16.3745C17.6951 16.3745 17.4332 16.7321 17.3949 16.7802L10.0519 25.814L2.71236 16.7848C2.66972 16.733 2.40868 16.3745 2.40868 16.3745C1.15481 14.6516 0.47744 12.5472 0.480479 10.3841C0.483473 7.73709 1.49285 5.19942 3.28719 3.3277ZM8.7966 11.0076L11.4319 14.4H13.7657L10.6167 10.4823L13.6541 6.71777H11.4096L8.7966 10.0883V6.71777H6.88709V14.4H8.7966V11.0076Z"
          fill="#B5B5B5"/>
</svg>
