<svg width="67" height="91" viewBox="0 0 67 91" fill="none" xmlns="http://www.w3.org/2000/svg">
    <path d="M33.5 0C24.6185 0.0111526 16.1037 3.77149 9.82353 10.4561C3.54333 17.1408 0.0105191 26.2039 4.12947e-05 35.6574C-0.0105961 43.3828 2.36021 50.8986 6.74876 57.0519C6.74876 57.0519 7.6624 58.3323 7.81162 58.517L33.5 90.7643L59.2006 58.5008C59.3346 58.329 60.2513 57.0519 60.2513 57.0519L60.2543 57.0421C64.6407 50.8916 67.0104 43.3793 67 35.6574C66.9895 26.2039 63.4567 17.1408 57.1765 10.4561C50.8963 3.77149 42.3815 0.0111526 33.5 0Z"
          fill="#0074E0"/>
    <path d="M37.8717 49.75L28.648 37.6342V49.75H21.9648V22.3135H28.648V34.3512L37.7935 22.3135H45.6493L35.0186 35.7582L46.0401 49.75H37.8717Z"
          fill="white"/>
</svg>
