<svg width="18" height="18" viewBox="0 0 18 18" fill="none" xmlns="http://www.w3.org/2000/svg">
    <path d="M17.7 10.15L16.7 11.15L14.65 9.09999L15.65 8.09999C15.7528 7.99921 15.891 7.94277 16.035 7.94277C16.179 7.94277 16.3172 7.99921 16.42 8.09999L17.7 9.37999C17.91 9.58999 17.91 9.93999 17.7 10.15ZM8 15.74L14.06 9.67999L16.11 11.73L10.06 17.8H8V15.74ZM8 10.8C3.58 10.8 0 12.59 0 14.8V16.8H6V14.91L10 10.91C9.34 10.83 8.67 10.8 8 10.8ZM8 0.799988C6.93913 0.799988 5.92172 1.22141 5.17157 1.97156C4.42143 2.72171 4 3.73912 4 4.79999C4 5.86085 4.42143 6.87827 5.17157 7.62842C5.92172 8.37856 6.93913 8.79999 8 8.79999C9.06087 8.79999 10.0783 8.37856 10.8284 7.62842C11.5786 6.87827 12 5.86085 12 4.79999C12 3.73912 11.5786 2.72171 10.8284 1.97156C10.0783 1.22141 9.06087 0.799988 8 0.799988Z"
          fill="#929292"/>
</svg>
