<svg width="328" height="72" viewBox="0 0 328 72" fill="none" xmlns="http://www.w3.org/2000/svg">
    <mask id="path-1-inside-1_871_895" fill="white">
        <path fill-rule="evenodd" clip-rule="evenodd"
              d="M0 10C0 4.47715 4.47715 0 10 0H318C323.523 0 328 4.47715 328 10V22C320.268 22 314 28.268 314 36C314 43.732 320.268 50 328 50V62C328 67.5229 323.523 72 318 72H9.99999C4.47714 72 0 67.5229 0 62V50C7.73199 50 14 43.732 14 36C14 28.268 7.73199 22 0 22V10Z"/>
    </mask>
    <path fill-rule="evenodd" clip-rule="evenodd"
          d="M0 10C0 4.47715 4.47715 0 10 0H318C323.523 0 328 4.47715 328 10V22C320.268 22 314 28.268 314 36C314 43.732 320.268 50 328 50V62C328 67.5229 323.523 72 318 72H9.99999C4.47714 72 0 67.5229 0 62V50C7.73199 50 14 43.732 14 36C14 28.268 7.73199 22 0 22V10Z"
          fill="white"/>
    <path d="M328 22V23H329V22H328ZM328 50H329V49H328V50ZM0 50V49H-1V50H0ZM0 22H-1V23H0V22ZM10 -1C3.92487 -1 -1 3.92487 -1 10H1C1 5.02944 5.02944 1 10 1V-1ZM318 -1H10V1H318V-1ZM329 10C329 3.92487 324.075 -1 318 -1V1C322.971 1 327 5.02944 327 10H329ZM329 22V10H327V22H329ZM315 36C315 28.8203 320.82 23 328 23V21C319.716 21 313 27.7157 313 36H315ZM328 49C320.82 49 315 43.1797 315 36H313C313 44.2843 319.716 51 328 51V49ZM329 62V50H327V62H329ZM318 73C324.075 73 329 68.0751 329 62H327C327 66.9706 322.971 71 318 71V73ZM9.99999 73H318V71H9.99999V73ZM-1 62C-1 68.0751 3.92486 73 9.99999 73V71C5.02943 71 1 66.9706 1 62H-1ZM-1 50V62H1V50H-1ZM13 36C13 43.1797 7.1797 49 0 49V51C8.28427 51 15 44.2843 15 36H13ZM0 23C7.1797 23 13 28.8203 13 36H15C15 27.7157 8.28427 21 0 21V23ZM-1 10V22H1V10H-1Z"
          fill="#E5E5E5" mask="url(#path-1-inside-1_871_895)"/>
</svg>
