<svg width="20" height="16" viewBox="0 0 20 16" fill="none" xmlns="http://www.w3.org/2000/svg">
    <path d="M0.399902 3.2C0.399902 2.56348 0.652759 1.95303 1.10285 1.50295C1.55293 1.05286 2.16338 0.800003 2.7999 0.800003H17.1999C17.8364 0.800003 18.4469 1.05286 18.897 1.50295C19.347 1.95303 19.5999 2.56348 19.5999 3.2V5.6C18.9634 5.6 18.3529 5.85286 17.9028 6.30295C17.4528 6.75303 17.1999 7.36348 17.1999 8C17.1999 8.63652 17.4528 9.24697 17.9028 9.69706C18.3529 10.1471 18.9634 10.4 19.5999 10.4V12.8C19.5999 13.4365 19.347 14.047 18.897 14.4971C18.4469 14.9471 17.8364 15.2 17.1999 15.2H2.7999C2.16338 15.2 1.55293 14.9471 1.10285 14.4971C0.652759 14.047 0.399902 13.4365 0.399902 12.8V10.4C1.03642 10.4 1.64687 10.1471 2.09696 9.69706C2.54705 9.24697 2.7999 8.63652 2.7999 8C2.7999 7.36348 2.54705 6.75303 2.09696 6.30295C1.64687 5.85286 1.03642 5.6 0.399902 5.6V3.2Z"
          fill="#0074E0"/>
</svg>
