<svg width="40" height="40" viewBox="0 0 40 40" fill="none" xmlns="http://www.w3.org/2000/svg">
    <path d="M3.0296 25.6569C2.27945 24.9068 1.85803 23.8894 1.85803 22.8285C1.85803 21.7676 2.27945 20.7502 3.0296 20.0001L20.0002 3.0295C20.7503 2.27935 21.7677 1.85793 22.8286 1.85793C23.8895 1.85793 24.9069 2.27935 25.657 3.0295L28.4854 5.85793C27.7353 6.60807 27.3139 7.62549 27.3139 8.68635C27.3139 9.74722 27.7353 10.7646 28.4854 11.5148C29.2356 12.2649 30.253 12.6864 31.3139 12.6864C32.3747 12.6864 33.3922 12.2649 34.1423 11.5148L36.9707 14.3432C37.7209 15.0934 38.1423 16.1108 38.1423 17.1716C38.1423 18.2325 37.7209 19.2499 36.9707 20.0001L20.0002 36.9706C19.25 37.7208 18.2326 38.1422 17.1717 38.1422C16.1109 38.1422 15.0935 37.7208 14.3433 36.9706L11.5149 34.1422C12.265 33.3921 12.6865 32.3746 12.6865 31.3138C12.6865 30.2529 12.265 29.2355 11.5149 28.4853C10.7647 27.7352 9.74732 27.3138 8.68645 27.3138C7.62559 27.3138 6.60817 27.7352 5.85803 28.4853L3.0296 25.6569Z"
          fill="#0074E0"/>
    <ellipse cx="27.0003" cy="27" rx="5.83333" ry="5.83333" fill="white"/>
    <path d="M27.0003 35.3333C25.9057 35.3344 24.8215 35.1196 23.81 34.7012C22.7985 34.2828 21.8794 33.669 21.1053 32.895C20.3313 32.121 19.7175 31.2019 19.2991 30.1903C18.8807 29.1788 18.6659 28.0946 18.667 27V26.8333C18.7003 25.1995 19.2131 23.6115 20.1415 22.2667C21.0699 20.9219 22.373 19.8795 23.889 19.2692C25.4049 18.6589 27.0667 18.5075 28.668 18.8339C30.2692 19.1603 31.7392 19.95 32.8953 21.105C34.0618 22.2704 34.8562 23.7557 35.1782 25.3729C35.5001 26.99 35.3351 28.6664 34.7039 30.1897C34.0728 31.713 33.004 33.0149 31.6326 33.9305C30.2613 34.8461 28.6492 35.3343 27.0003 35.3333ZM27.0003 28.175L29.1587 30.3333L30.3337 29.1583L28.1753 27L30.3337 24.8417L29.1587 23.6667L27.0003 25.825L24.842 23.6667L23.667 24.8417L25.8253 27L23.667 29.1583L24.842 30.3333L27.0003 28.1758V28.175Z"
          fill="#FF8989"/>
</svg>
