<svg width="20" height="15" viewBox="0 0 20 15" fill="none" xmlns="http://www.w3.org/2000/svg">
    <path d="M0.400391 2.99999C0.400391 2.36347 0.653247 1.75302 1.10333 1.30293C1.55342 0.852847 2.16387 0.599991 2.80039 0.599991H17.2004C17.8369 0.599991 18.4474 0.852847 18.8974 1.30293C19.3475 1.75302 19.6004 2.36347 19.6004 2.99999V5.39999C18.9639 5.39999 18.3534 5.65285 17.9033 6.10294C17.4532 6.55302 17.2004 7.16347 17.2004 7.79999C17.2004 8.43651 17.4532 9.04696 17.9033 9.49705C18.3534 9.94713 18.9639 10.2 19.6004 10.2V12.6C19.6004 13.2365 19.3475 13.847 18.8974 14.297C18.4474 14.7471 17.8369 15 17.2004 15H2.80039C2.16387 15 1.55342 14.7471 1.10333 14.297C0.653247 13.847 0.400391 13.2365 0.400391 12.6V10.2C1.03691 10.2 1.64736 9.94713 2.09745 9.49705C2.54753 9.04696 2.80039 8.43651 2.80039 7.79999C2.80039 7.16347 2.54753 6.55302 2.09745 6.10294C1.64736 5.65285 1.03691 5.39999 0.400391 5.39999V2.99999Z"
          fill="#929292"/>
</svg>
