<svg width="41" height="40" viewBox="0 0 41 40" fill="none" xmlns="http://www.w3.org/2000/svg">
    <path d="M36.1037 15.1342C27.0438 6.26677 12.9532 6.27002 3.89696 15.1342C3.55639 15.4675 3.54974 16.0319 3.87906 16.3777L5.62997 18.2159C5.94395 18.546 6.44918 18.553 6.77543 18.2365C14.2372 11.0027 25.7624 11.0011 33.2257 18.2365C33.552 18.553 34.0572 18.5455 34.3712 18.2159L36.1221 16.3777C36.4509 16.0319 36.4442 15.4675 36.1037 15.1342ZM20.0003 25.8009C18.1926 25.8009 16.7276 27.3512 16.7276 29.2641C16.7276 31.1769 18.1926 32.7273 20.0003 32.7273C21.808 32.7273 23.2731 31.1769 23.2731 29.2641C23.2731 27.3512 21.808 25.8009 20.0003 25.8009ZM30.3641 21.2776C24.4702 15.7619 15.5238 15.7679 9.63651 21.2776C9.28367 21.6077 9.27242 22.1807 9.60736 22.5303L11.3685 24.3696C11.6753 24.6899 12.1693 24.7116 12.4961 24.4129C16.789 20.4859 23.2214 20.4946 27.5041 24.4129C27.8308 24.7116 28.3248 24.6905 28.6316 24.3696L30.3928 22.5303C30.7282 22.1807 30.7165 21.6071 30.3641 21.2776Z"
          fill="#0074E0"/>
    <ellipse cx="31.0003" cy="17" rx="5.83333" ry="5.83333" fill="white"/>
    <path d="M31.0003 25.3333C29.9057 25.3344 28.8215 25.1196 27.81 24.7012C26.7985 24.2828 25.8794 23.669 25.1053 22.895C24.3313 22.121 23.7175 21.2019 23.2991 20.1903C22.8807 19.1788 22.6659 18.0947 22.667 17V16.8333C22.7003 15.1995 23.2131 13.6115 24.1415 12.2667C25.0699 10.9219 26.373 9.87953 27.889 9.26922C29.4049 8.65891 31.0667 8.50754 32.668 8.83393C34.2692 9.16031 35.7392 9.95005 36.8953 11.105C38.0618 12.2705 38.8562 13.7558 39.1782 15.3729C39.5001 16.9901 39.3351 18.6664 38.7039 20.1897C38.0728 21.713 37.004 23.0149 35.6326 23.9305C34.2613 24.8461 32.6492 25.3343 31.0003 25.3333ZM31.0003 18.175L33.1587 20.3333L34.3337 19.1583L32.1753 17L34.3337 14.8417L33.1587 13.6667L31.0003 15.825L28.842 13.6667L27.667 14.8417L29.8253 17L27.667 19.1583L28.842 20.3333L31.0003 18.1758V18.175Z"
          fill="#FF8989"/>
</svg>
