<svg width="18" height="13" viewBox="0 0 18 13" fill="none" xmlns="http://www.w3.org/2000/svg">
    <path d="M17.8568 3.456C12.8739 -1.15284 5.12407 -1.15116 0.143132 3.456C-0.0441802 3.62925 -0.0478364 3.92259 0.133289 4.10231L1.09629 5.05772C1.26898 5.22928 1.54685 5.23294 1.72629 5.06841C5.83029 1.30866 12.1691 1.30781 16.2739 5.06841C16.4534 5.23294 16.7313 5.229 16.9039 5.05772L17.8669 4.10231C18.0478 3.92259 18.0441 3.62925 17.8568 3.456ZM8.99998 9C8.00576 9 7.19998 9.80578 7.19998 10.8C7.19998 11.7942 8.00576 12.6 8.99998 12.6C9.99419 12.6 10.8 11.7942 10.8 10.8C10.8 9.80578 9.99419 9 8.99998 9ZM14.7001 6.64903C11.4584 3.78225 6.53791 3.78534 3.29988 6.64903C3.10582 6.82059 3.09963 7.11844 3.28385 7.30012L4.25248 8.25609C4.42123 8.42259 4.69291 8.43384 4.87263 8.27859C7.23373 6.23756 10.7716 6.24206 13.127 8.27859C13.3068 8.43384 13.5784 8.42287 13.7472 8.25609L14.7158 7.30012C14.9003 7.11844 14.8939 6.82031 14.7001 6.64903Z"
          fill="#0074E0"/>
</svg>
